

<svg version="1.1" id="Ebene_1" xmlns="http://www.w3.org/2000/svg" xmlns:xlink="http://www.w3.org/1999/xlink" x="0px" y="0px"
	 viewBox="0 0 1630 540" enable-background="new 0 0 1630 540" xml:space="preserve">
<path fill="#0092BF" d="M134.7,526.9H18c-7.1,0-12.7-5.6-12.7-12.7v-297c0-7.3,5.5-12.7,12.7-12.7h115.2c22.3,0,42.9,8.7,57.9,24.5
	c15.3,15.8,23.7,36.4,23.7,57.8c0,27.6-12.8,52.1-35.2,67.8c14.3,7.1,26.5,17.8,35.4,31.3c9.8,14.8,14.8,31.8,14.8,50.4
	c0,25.2-9.8,48.2-27.5,64.9C184.6,517.8,160.6,526.9,134.7,526.9z M30.7,501.2h103.7c19.5,0,37.3-7,50.1-19.8
	c12.8-12.8,19.6-28.9,19.6-46.6c0-18-7-34.5-19.8-46.5c-13-12-31-18.6-50.6-18.6H30.7V501.2z M30.7,344.3h100.7
	c15.6,0,30.2-6.1,41.1-17.3c10.5-10.5,16.3-24.5,16.3-39.4c0-14.6-5.8-29.1-15.9-39.9c-10.8-11.3-25.2-17.5-40.6-17.5H30.7V344.3z"
	/>
<path fill="#0092BF" d="M290.3,526.9c-7.7,0-13.5-5.6-13.5-13v-96.8c0-33.2,13-64.6,36.6-88.5c23.3-23.8,54.4-36.9,87.7-36.9h2.5
	c8,0,13.2,5,13.2,12.7c0,7.2-5.7,12.7-13.2,12.7h-2.5c-26.3,0-51,10.3-69.4,29c-18.6,18.8-29.3,44.7-29.3,71v96.8
	C302.5,521.2,297.1,526.9,290.3,526.9z"/>
<path fill="#0092BF" d="M549.5,526.9c-32.1,0-62.4-12.6-85.2-35.4c-22.8-22.8-35.4-53.1-35.4-85.2c0-32.2,12.9-63.5,35.4-85.7
	c22.9-22.7,53.2-35.2,85.2-35.2c32.3,0,62.5,12.4,85,34.9c22.6,22.6,35.2,52.8,35.4,85v105c0,7.9-5.3,13.5-13,13.5
	c-3.9,0-7-1.4-9.1-4c-2.2-2.5-3.4-5.7-3.4-9.4l-0.2-31.2c-10.7,13.8-23.8,25.1-38.3,33C588.5,521.7,569,526.9,549.5,526.9z
	 M549.5,311c-13.2,0-25.6,2.5-37,7.3c-23.2,9.9-40.7,27.5-50.4,50.9c-5,11.2-7.6,23.7-7.6,37c0,24.9,9.9,48.6,27.8,66.7
	c17.7,18.2,41.6,28.2,67.2,28.2c26,0,50-10,67.7-28.2c17.6-17.8,27.3-41.5,27.3-66.7c0-25.7-9.7-49.6-27.3-67.5
	C599.6,320.9,575.5,311,549.5,311z"/>
<path fill="#0092BF" d="M734.7,526.9c-7,0-13-6-13-13.2V304.8c0-7.3,5.7-13,13-13c7.2,0,12.7,5.6,12.7,13v208.9
	C747.4,521.1,741.8,526.9,734.7,526.9z M734.4,260.5c-4.2,0-8.3-1.7-11.4-4.8c-3.1-3.1-4.8-7.2-4.8-11.4c0-9.5,7-16.7,16.2-16.7
	c9.8,0,16.9,7,16.9,16.7C751.4,253.4,743.9,260.5,734.4,260.5z"/>
<path fill="#0092BF" d="M1005.4,526.9c-7.3,0-13-5.7-13-13V404.2c0-24.2-8.4-47.4-23.1-63.8C954,323.4,932.7,314,909.4,314
	c-23.7,0-45.5,9.2-61.2,26c-16,16.8-24.8,39.5-24.8,64v109.9c0,7.8-5,13-12.5,13c-7.3,0-13.2-5.8-13.2-13V403.5
	c0-31.3,11.4-60.2,32.2-81.5c20.9-21.7,49.2-33.7,79.5-33.7c30.4,0,58.2,12,78.3,33.7c19.6,21.1,30.4,50.1,30.4,81.5v110.4
	C1018.1,521.3,1012.6,526.9,1005.4,526.9z"/>
<path stroke="#000000" stroke-width="2" stroke-miterlimit="10" d="M273.7,19.3c0-3.4,2.6-5.8,5.8-5.8H329
	c16.8,0,32.2,6.3,43.2,16.9c11,10.6,17.9,25.4,17.9,42.2c0,13-4.2,24.4-11.1,33.4c-7.1,9.1-17.1,15.8-28.7,19.6l37.3,49.6
	c2.7,2.7,2.1,6.7-0.5,8.7c-2.6,2-5.5,1.6-7.7-0.5l-41.8-55.1c-3.1,0.4-5.9,0.5-9,0.5h-43.4v50.8c0,3.2-2.6,5.8-5.8,5.8
	c-3.2,0-5.8-2.6-5.8-5.8V19.3z M285.2,25.2v92.1h43.5c14.5,0,27-4.8,35.7-12.9c8.7-8.1,14-19.3,14-31.8c0-12.5-5.1-24.4-13.7-33.2
	c-8.7-8.7-21.1-14.2-35.5-14.2H285.2z"/>
<path stroke="#000000" stroke-width="2" stroke-miterlimit="10" d="M518.2,162.2c0.1,1.5-0.5,3-2,4.3c-10.7,12-26.3,20.7-46.7,20.7
	c-17.7,0-33.6-7.1-45.3-18.8c-11.7-11.7-18.8-27.7-18.8-45.4s7.1-33.6,18.8-45.3c11.7-11.7,27.5-18.8,45.3-18.8
	c17.7,0,33.7,7.1,45.3,18.7c11.5,11.5,18.8,27.5,18.8,45.1c0,3.2-2.3,5.8-5.6,5.8H418.2c1.1,13.3,7,24.9,16.1,33.3
	c9.1,8.6,21.5,13.7,35.1,13.7c7.5,0,15-1.6,21.9-4.8c6.9-3.1,12.8-7.5,17.1-13c2-1.5,3.9-2,5.8-1.5C515.9,156.9,518,159,518.2,162.2
	z M521.5,118.6c-0.9-13.4-6.9-25.5-16.3-34.1c-9.4-8.6-21.9-13.8-35.7-13.8c-14,0-26.5,5.2-35.6,13.8c-9.3,8.7-15.2,20.7-16.1,34.1
	H521.5z"/>
<path stroke="#000000" stroke-width="2" stroke-miterlimit="10" d="M554,120.1c0-16.8,6.3-32.2,17.1-43.2
	c10.6-11,25.4-17.9,42.2-17.9c16.8,0,31.3,6.9,41.5,17.9s16.1,26.5,16.1,43.2v59.6c0,3.4-2.4,5.9-5.8,5.9c-3.2,0-5.9-2.6-5.9-5.9
	v-59.2c0-13.6-4.7-26.2-12.8-35.2c-8.1-9-19.6-14.6-33.2-14.6c-13.6,0-25.4,5.4-33.8,14.4c-8.6,9-13.7,21.4-13.7,35.3v59.4
	c0,3.4-2,5.9-5.6,5.9c-3.2,0-6-2.6-6-5.9V120.1z"/>
<path stroke="#000000" stroke-width="2" stroke-miterlimit="10" d="M700.4,22.1c0-3.4,2.7-6,5.9-6c3.4,0,5.8,2.4,5.8,6v38.6h63.8
	c3.2,0,6,2.6,6,5.8c0,3.2-2.4,5.8-6,5.8h-63.8v52.5c0,14.4,5.8,27,15.4,36.1c9.5,9.1,22.7,14.6,37.3,14.6c13.3,0,24.2-3.6,34.4-12.6
	c0.5-0.5,1.2-1.1,2.1-1.5c2-0.9,4.2-0.8,5.9,0.8c2.7,2.6,2,6.6-0.5,9.1c-10.9,10.3-25.7,15.8-41.9,15.8c-17.7,0-33.8-6.7-45.5-17.9
	c-11.8-11.1-18.9-26.9-18.9-44.6V22.1z"/>
<path stroke="#000000" stroke-width="2" stroke-miterlimit="10" d="M1006.6,183.7c-1.1-1.2-1.6-2.7-1.6-4.4l-0.1-20.1
	c-5.8,8.2-13.4,15.3-22.3,20.1c-8.9,5-19.2,7.9-30,7.9c-17.6,0-33.6-7.1-45.3-18.8c-11.7-11.7-18.8-27.7-18.8-45.3
	c0-17.7,7.1-34,18.8-45.5C919,66.1,935,58.9,952.6,58.9c17.7,0,33.6,7,45.1,18.5c11.6,11.6,18.7,27.4,18.8,45.1v56.7
	c0,3.6-2.3,6.2-5.9,6.2C1008.8,185.5,1007.5,184.9,1006.6,183.7z M904.3,102.7c-2.8,6.3-4.2,13.2-4.2,20.4
	c0,14.4,5.9,27.3,15.3,36.8c9.4,9.7,22.4,15.6,37.1,15.6c14.6,0,27.9-5.9,37.3-15.6c9.4-9.5,15-22.4,15-36.8
	c0-14.5-5.6-27.7-15-37.2c-9.4-9.5-22.7-15.3-37.3-15.3c-7.3,0-14.1,1.3-20.4,4C919.3,80.2,909.7,89.8,904.3,102.7z"/>
<g>
	<g>
		<path fill="#0092BF" stroke="#0092BF" stroke-width="3" stroke-miterlimit="10" d="M394.4,342.3"/>
	</g>
</g>
<path fill="#0092BF" d="M1565.2,98.3c-9.3-2.6-15.6-3.3-21-3.5c-3.3-0.1-6.1-2.4-7-5.5c-12.4-47.1-55.3-81.9-106.3-81.9
	c-27.2,0-52,9.8-71.2,26.2c-2.7,2.3-6.7,2.3-9.5,0.2c-17.6-13.8-39.7-22-63.8-22c-42.1,0-78.4,25.2-94.5,61.3
	c-1.3,2.8-4,4.6-7.1,4.5c-5.3-0.1-9.8,0.2-16.9,1.5c-26.1,4.5-59.3,30.8-59.3,72.8c0,6,0.7,11.8,2.1,17.4c1.1,4.4-2,8.7-6.5,9.2
	c-5.2,0.6-11.6,2.3-17.5,6.3c-2.3,1.6-18.4,12.1-18.2,33.9c0.1,22.2,18.5,39.9,40.7,39.9h430.7c45.4,0,83.2-37.1,82.9-82.5
	C1622.5,131,1588.5,104.9,1565.2,98.3z"/>
<path fill="#0092BF" d="M1539.9,277.9h-430.7c-22.2,0-40.5,17.7-40.7,39.9c-0.1,21.8,15.9,32.3,18.2,33.9c5.4,3.6,11,5.3,15.9,6.1
	c5.4-5.4,15.9-16,25.8-26V307c0-3.3,2.7-5.9,5.9-5.9s5.9,2.7,5.9,5.9v27.1c0,1.5-0.6,3-1.7,4.1c-15.1,15.5-23.2,23.6-27.7,28
	c0,0.3-0.1,0.6-0.2,0.9c-1.3,5.6-2.1,11.4-2.1,17.4c0,42,33.2,68.3,59.3,72.8c5.4,0.9,9.4,1.4,13.3,1.5v-45.6v-38.4
	c0-3.3,2.7-5.9,5.9-5.9c3.3,0,5.9,2.7,5.9,5.9v24.6c5.7-5.6,13.3-13.2,20.5-20.4v-36.5c0-3.3,2.7-5.9,5.9-5.9s5.9,2.7,5.9,5.9v39
	c0,1.6-0.6,3.1-1.7,4.2c-18.7,18.8-26.8,26.8-30.6,30.3v49.8c16.6,34.9,52.2,59,93.4,59c22.7,0,43.7-7.3,60.7-19.7v-8.3v-5.4v-33.8
	V416c-3.8-3.5-11.9-11.5-30.6-30.3c-1.1-1.1-1.7-2.6-1.7-4.2v-39c0-3.3,2.7-5.9,5.9-5.9s5.9,2.7,5.9,5.9v36.5
	c7.2,7.2,14.7,14.8,20.5,20.4v-74.2c0-3.3,2.7-5.9,5.9-5.9s5.9,2.7,5.9,5.9v88v30.4c5.7-5.6,13.3-13.2,20.5-20.4v-36.5
	c0-3.3,2.7-5.9,5.9-5.9c3.3,0,5.9,2.7,5.9,5.9v39c0,1.6-0.6,3.1-1.7,4.2c-18.7,18.8-26.8,26.8-30.6,30.3v31.1v5.4v5.7
	c0.2,0.2,0.5,0.3,0.7,0.5c19.2,16.3,44,26.2,71.2,26.2c48,0,88.9-30.8,103.8-73.8V416c-3.8-3.5-11.9-11.5-30.6-30.3
	c-1.1-1.1-1.7-2.6-1.7-4.2v-63c0-3.3,2.7-5.9,5.9-5.9c3.3,0,5.9,2.7,5.9,5.9v60.5c7.2,7.2,14.7,14.8,20.5,20.4v-56.9
	c0-3.3,2.7-5.9,5.9-5.9s5.9,2.7,5.9,5.9v70.7v0.4v27.7c4.9-0.3,10.7-1.1,18.6-3.4c23.3-6.6,57.3-32.8,57.6-77.6
	C1623.1,315.1,1585.3,277.9,1539.9,277.9z"/>
</svg>

